<svg preserveAspectRatio="xMidYMid meet" data-bbox="0.81 0 124 27" xmlns="http://www.w3.org/2000/svg" viewBox="0.81 0 124 27" height="27" width="125" data-type="color" role="img" aria-label="Vector"><defs><style>#comp-m714j9393 svg [data-color="1"] {fill: #28334D;}</style></defs>
    <g>
        <path fill="#ffffff" d="m66.415.046.773.077.373.062.737.139.354.092.7.2.335.123.662.262.317.154.625.324.298.185.589.386.28.216.551.447.262.247.56.565.346.389.16.201.311.406.142.209.275.422.125.217.24.439.106.226.204.455.09.234.169.472.07.242.135.49.054.25.072.324.038.17.007.065.007.12-.014.042-.04.075-.043.026-.102.043-.08.011-.085.01-.05.005-.107.006-.062.001-.13.003h-.504l-.103-.001h-1.983l-.094-.347-.179-.6-.13-.379-.072-.178-.147-.35-.08-.166-.166-.328-.091-.156-.187-.306-.102-.148-.21-.29-.114-.14-.235-.277-.129-.136-.261-.267-.142-.131-.345-.304-.229-.184-.117-.085-.234-.164-.12-.075-.243-.145-.127-.067-.257-.13-.135-.06-.276-.117-.147-.054-.299-.106-.16-.05-.326-.098-.177-.047-.417-.087-.325-.048-.18-.018-.37-.033-.195-.012-.395-.02-.202-.003-.403-.004-.198.003-.393.011-.185.012-.363.026-.165.02-.315.042-.133.027-.664.162-.429.131-.206.077-.407.162-.197.093-.389.192-.186.107-.366.223-.177.121-.346.252-.165.137-.325.28-.155.152-.303.31-.144.165-.28.337-.133.18-.26.366-.12.193-.238.393-.109.206-.213.42-.099.22-.19.447-.086.234-.166.473-.075.247-.142.498-.062.26-.118.525-.05.271-.08.548-.043.405-.015.217-.027.442-.008.228-.012.462v.234l.005.465.007.228.019.454.016.216.034.424.023.195.05.38.03.166.19.896.145.567.083.269.172.528.097.251.2.494.11.234.23.46.126.218.259.43.141.203.292.4.157.191.322.375.175.179.649.603.45.356.234.154.476.296.248.125.505.237.264.096.537.178.282.068.573.122.301.04.613.066.322.012.655.012.344-.014.648-.044.419-.048.202-.033.4-.07.194-.045.382-.093.184-.057.364-.116.175-.068.346-.14.165-.08.326-.162.157-.09.307-.186.146-.102.288-.207.137-.113.269-.23.126-.125.25-.252.116-.136.229-.274.107-.146.208-.297.097-.157.188-.318.086-.168.168-.34.075-.179.148-.361.065-.19.065-.21.047-.17.025-.093.099-.4.045-.205.043-.203.02-.095.036-.187.014-.082.026-.156.008-.061.012-.11v-.035l.034-.015.055-.009.042-.004.093-.008.06-.004.127-.007.075-.003.157-.006.088-.003.183-.005.098-.001.415-.006h1.883l-.002.265-.013.192-.022.162-.016.095-.036.2-.022.11-.047.225-.028.119-.118.49-.067.242-.068.241-.035.115-.07.225-.035.104-.222.588-.17.391-.094.193-.195.386-.107.189-.219.375-.116.183-.24.36-.125.175-.257.343-.134.163-.271.32-.14.15-.285.294-.145.136-.598.51-.42.317-.222.148-.451.287-.235.13-.478.255-.247.115-.5.221-.258.097-.52.186-.268.08-.538.15-.275.06-.553.113-.281.041-.27.035-.158.014-.326.026-.178.01-.364.016-.19.005-.385.006h-.194l-.388-.002-.188-.005-.373-.013-.175-.009-.342-.02-.152-.015-.291-.031-.122-.02-.993-.196-.643-.17-.31-.105-.617-.221-.297-.129-.589-.27-.283-.153-.558-.317-.268-.176-.527-.363-.252-.198-.495-.407-.235-.22-.461-.45-.218-.24-.425-.49-.2-.26-.388-.53-.18-.278-.35-.568-.161-.297-.31-.603-.14-.315-.27-.638-.118-.33-.227-.671-.097-.347-.183-.701-.074-.362-.137-.732-.05-.375-.047-.44-.025-.343-.01-.19-.017-.387-.005-.204-.01-.413-.001-.207-.002-.417.003-.202.007-.4.007-.186.015-.362.011-.159.024-.303.016-.122.133-.882.11-.576.066-.28.14-.557.079-.272.165-.537.093-.261.193-.517.106-.251.219-.498.119-.24.245-.476.132-.229.27-.453.145-.218.295-.43.157-.205.319-.407.169-.194.343-.382.181-.182.367-.356.192-.169.39-.33.203-.155.412-.305.214-.141.435-.277.225-.128.455-.248.236-.113.648-.293.423-.172.21-.075.418-.141.21-.06.42-.114.213-.047.429-.087.22-.033.447-.061.231-.022.47-.038.246-.01.5-.016h.266M47.557 13.478l.492 1.317.322.86.156.42.311.833.15.404.3.802.143.386.286.765.136.367.27.724.128.345.253.678.119.32.234.629.11.294.212.575.099.265.192.516.087.235.168.452.074.201.143.386.062.166.116.314.047.128.087.237.032.088.03.084.013.033.022.063.008.023.015.04.005.013.006.02-.035.012-.057.009-.043.003-.097.007-.062.003-.132.007-.078.002-.164.005-.09.003-.19.004-.103.001-.43.005h-1.959l-4-11.393-.409-1.16-.266-.76-.13-.37-.259-.736-.126-.357-.249-.708-.12-.341-.237-.675-.115-.325-.225-.64-.108-.305-.21-.6-.101-.284-.197-.557-.092-.26-.18-.51-.082-.234-.162-.458-.074-.208-.142-.403-.063-.179-.122-.343-.053-.147-.099-.28-.04-.115-.077-.213-.028-.08-.051-.141-.016-.043-.024-.067-.002-.003-.043.01-.044.064-.028.057-.062.132-.035.087-.074.189-.04.113-.423 1.195-.303.848-.16.446-.325.903-.169.467-.34.942-.175.48-.707 1.943-.356.972-.356.968-.175.477-.35.948-.17.46-.338.91-.162.437-.32.858-.151.405-.297.791-.138.366-.136.36-.064.171-.128.338-.06.159-.12.312-.055.146-.11.286-.05.132-.1.257-.046.116-.088.227-.04.101-.077.193-.034.085-.064.16-.028.065-.05.124-.022.047-.038.085-.013.028-.424.757-.32.477-.178.224-.369.436-.2.202-.411.392-.221.18-.451.346-.24.155-.487.296-.256.13-.52.244-.272.102-.55.189-.283.073-.209.047-.124.022-.258.04-.143.018-.6.06-.313.015-.312.013-.15.003-.299.002-.137-.003-.267-.009-.116-.009-.22-.021-.085-.016-1.044-.248-.68-.222-.325-.137-.641-.291-.302-.169-.297-.172-.144-.092-.28-.187-.136-.099-.302-.235-.21-.175-.113-.1-.229-.209-.124-.12-.255-.248-.14-.142-.289-.296-.159-.17-.33-.35-.181-.2-.186-.202-.097-.108-.199-.22-.104-.116-.213-.237-.111-.126-.228-.256-.12-.135-.673-.752-.444-.486-.216-.232-.429-.456-.206-.216-.407-.42-.193-.195-.38-.38-.175-.17-.344-.329-.156-.143-.3-.273-.133-.112-.129-.109-.06-.048-.115-.091-.053-.04-.503-.346-.34-.208-.174-.093-.349-.176-.177-.078-.357-.147-.182-.061-.365-.116-.186-.047-.374-.085-.19-.031-.382-.056-.194-.015-.392-.025h-.198l-.873-.004.744-1.3.744-1.301.666.049.63.075.414.081.204.056.409.124.204.078.408.167.205.101.412.214.209.124.42.261.214.15.43.313.222.175.447.364.231.202.282.257.201.192.11.11.227.229.125.132.26.276.146.158.302.33.17.19.173.193.092.104.187.21.099.113.202.23.107.122.218.25.116.133.235.27.125.144.253.293.134.155.744.845.464.51.218.23.427.442.201.197.394.38.187.166.364.32.173.137.34.263.162.112.318.21.153.087.302.161.145.064.86.31.57.144.285.04.565.063h.278l.552-.02.27-.04.532-.102.258-.08.506-.18.241-.12.475-.259.223-.159.22-.163.106-.09.21-.182.1-.099.184-.183.107-.113.048-.053.177-.207.076-.106.145-.22.073-.131.074-.136.039-.076.08-.16.044-.09.155-.334.12-.276.07-.163.145-.344.08-.198.168-.411.092-.231.19-.478.102-.262.21-.542.114-.294.233-.604.123-.325.252-.664.134-.355.272-.723.143-.383.291-.78.153-.413.309-.836.161-.439.328-.89.17-.465.345-.944.178-.49.361-.995.187-.515.377-1.043.195-.54.392-1.09.202-.563 1.52-4.24h3.774m66.601-.019 1.002.005.607.003.275.002.531.003.239.002.461.003.207.002.397.004.176.002.34.004.15.003.288.005.126.002.243.006.106.004.202.006.089.005.169.009.074.004.271.02.107.014.203.028.093.018.183.037.101.022.881.226.564.174.27.1.533.207.255.116.503.24.24.132.472.272.225.15.441.305.209.164.411.339.195.18.381.371.178.199.351.403.164.215.32.436.148.231.29.47.134.247.259.502.119.264.229.536.104.28.199.57.088.296.169.602.073.313.14.636.058.33.102.714.054.522.019.277.034.565.01.292.015.588v.298l-.004.593-.01.293-.024.58-.02.28-.043.548-.029.255-.064.497-.038.223-.109.58-.076.364-.041.173-.17.67-.101.315-.214.623-.13.31-.133.312-.073.16-.151.32-.082.167-.295.552-.207.354-.11.17-.223.336-.118.16-.239.317-.126.151-.255.299-.134.142-.271.28-.142.133-.288.262-.15.124-.304.244-.159.115-.321.226-.168.106-.338.209-.175.097-.355.19-.185.088-.372.173-.193.08-.39.156-.202.07-.407.139-.211.062-.426.121-.22.055-.443.103-.229.046-.146.027-.09.011-.193.021-.123.01-.128.009-.072.004-.15.008-.086.003-.176.008-.099.003-.206.007-.115.003-.238.006-.133.002-.275.005-.152.002-.314.005-.173.002-.357.005-.196.001-.403.005-.221.001-.452.004-.247.002-.506.003-.274.002-.563.003-.303.002-5.73.032V.51M8.673 17.816l.376.03.18.023.36.055.173.037.346.08.17.052.337.108.168.066.336.139.169.08.338.17.172.098.347.203.178.114.369.251.245.183.125.1.251.212.132.119.267.249.143.141.294.296.16.17.329.352.18.2.184.205.097.11.197.223.103.118.21.242.111.13.225.26.118.14.71.816.491.55.234.256.233.253.109.118.215.23.098.103.19.199.085.085.16.16.065.063.956.917-.967-.006-.429-.01-.266-.014-.126-.01-.482-.053-.22-.044-.432-.102-.21-.07-.418-.156-.217-.102-.32-.167-.212-.13-.109-.075-.217-.157-.112-.091-.227-.192-.119-.11-.24-.228-.129-.13-.26-.272-.14-.154-.285-.318-.154-.179-.314-.37-.17-.206-.42-.492-.278-.313-.13-.138-.127-.135-.059-.06-.114-.117-.05-.05-.099-.094-.041-.038-.077-.067-.03-.022-.548-.356-.406-.214-.22-.094-.45-.18-.236-.077-.48-.143-.248-.057-.5-.105-.251-.036-.506-.062-.251-.015-.5-.017-.242.01-.482.03-.23.035-.4.06.265-.52.156-.298.115-.21.06-.107.25-.43.118-.197.119-.192.054-.086.106-.163.046-.067.086-.125.034-.043.062-.075.018-.015.118-.045.133-.023.094-.008.206-.015.131-.004.283-.007h.17M86.456.54l.622.003.395.002h.187l.368.002.175.002.343.001.163.001.32.002h.152l.298.003.14.001.542.004.24.003.463.005.205.004.392.008.173.004.331.01.146.005.278.012.122.007.234.015.102.01.198.019.089.011.327.048.143.033.28.07.143.043.297.093.179.058.71.264.453.207.217.117.425.243.2.134.394.277.184.15.358.31.164.165.32.338.144.178.278.365.123.19.232.388.099.201.186.396.106.242.045.115.158.446.053.225.048.227.02.12.036.244.013.133.025.274.009.152.017.314.006.176.002.825-.028.521-.03.247-.066.487-.048.23-.107.453-.069.215-.146.421-.089.2-.187.39-.11.185-.229.364-.13.171-.271.338-.152.159-.494.445-.185.136-.1.066-.207.131-.112.064-.233.126-.127.062-.26.125-.142.062-.294.125-.16.063-.33.127-.181.065-.061.036v.025l.024.015.06.034.058.02.13.046.095.03.358.127.23.1.11.057.219.12.105.066.207.14.099.076.195.158.094.087.184.178.088.096.173.197.082.106.161.216.076.116.15.237.07.125.138.255.065.136.127.274.058.145.115.295.054.154.104.314.047.163.092.333.042.174.08.353.036.182.068.372.03.193.085.604.027.23.013.127.028.266.015.15.03.312.016.177.033.371.017.212.037.44.02.25.02.255.012.136.022.277.011.147.041.48.027.28.014.12.028.23.014.1.03.185.015.078.033.148.018.06.036.114.02.046.041.084.023.034.048.06.025.024.117.112.048.062.007.025-.001.046-.022.018-.058.032-.056.013-.128.02-.094.008-.098.008-.057.002-.12.005-.069.002-.143.004h-.08l-.166.003h-.093l-.192.002h-.445l-.474-.001-.275-.002-.118-.002-.225-.004-.096-.003-.178-.007-.074-.004-.136-.008-.055-.005-.099-.012-.037-.006-.065-.015-.022-.008-.035-.018-.01-.01-.059-.098-.036-.087-.017-.055-.031-.121-.014-.074-.028-.157-.011-.093-.024-.197-.01-.114-.02-.239-.01-.137-.017-.285-.007-.162-.014-.335-.007-.187-.021-.559-.016-.354-.009-.17-.018-.33-.01-.16-.022-.309-.011-.147-.05-.57-.03-.258-.063-.497-.037-.226-.078-.436-.044-.2-.095-.384-.054-.177-.114-.345-.063-.16-.133-.315-.075-.15-.21-.378-.151-.235-.082-.108-.17-.213-.09-.098-.186-.19-.099-.087-.204-.168-.109-.077-.221-.146-.119-.067-.24-.126-.128-.055-.26-.106-.137-.046-.186-.057-.128-.031-.076-.012-.164-.024-.107-.01-.113-.008-.064-.004-.136-.008-.077-.003-.163-.006-.093-.003-.194-.005-.11-.003-.23-.005-.13-.001-.27-.004-.151-.002-.314-.003-.175-.002-.362-.003-.202-.002-.415-.003-.228-.002-.473-.003-.259-.001-4.282-.027v10.525h-3.392V.51m26.725 23.078h3.455l.74-.001.476-.003.228-.003.446-.005.208-.002.407-.008.186-.004.36-.008.159-.005.305-.01.128-.005.24-.01.093-.007.169-.013.054-.006.973-.168.615-.157.289-.102.567-.219.266-.131.519-.279.242-.161.471-.339.217-.191.421-.397.192-.221.371-.456.167-.25.321-.514.141-.278.285-.631.172-.449.076-.236.145-.48.064-.25.121-.507.05-.262.096-.528.038-.27.07-.544.025-.278.044-.556.013-.28.019-.562v-.282l-.006-.563-.013-.28-.032-.56-.025-.277-.057-.551-.038-.27-.083-.537-.051-.262-.107-.518-.064-.25-.133-.494-.076-.236-.159-.465-.089-.22-.184-.43-.101-.201-.391-.69-.285-.425-.156-.195-.318-.38-.173-.174-.356-.336-.191-.152-.393-.294-.211-.132-.433-.252-.231-.111-.473-.213-.253-.092-.516-.175-.274-.074-.267-.07-.164-.037-.087-.014-.18-.028-.108-.01-.234-.021-.149-.007-.157-.008-.087-.002-.185-.007-.104-.002-.218-.005-.123-.002-.255-.004-.143-.002-.298-.004-.166-.002-.345-.003-.191-.002-.397-.003-.22-.002-.452-.003-.249-.002-3.993-.03M13.25 8.373l.377.057.262.058.136.04.274.083.14.05.28.108.143.062.57.268.28.163.556.342.26.194.51.397.337.278.169.149.339.306.174.165.35.342.182.185.37.385.194.211.396.437.211.24.432.496.232.274.234.278.122.146.246.296.128.154.209.247.158.183.087.098.366.408.198.215.404.434.2.208.197.206.095.097.188.191.089.087.393.39.223.217.096.09.181.17.079.072.15.132.068.054.131.104.063.044.123.083.062.038.257.142.16.076.557.24.343.115.172.038.347.065.189.017.192.013.102.005.209.005h.113l.823-.06.284-.043.146-.03.295-.063.15-.04.304-.083.156-.05.315-.103.162-.06.327-.123.167-.07.339-.144.175-.079.304-.137.18-.077.073-.03.134-.053.042-.015.038-.013.012-.003.02-.005.002.002-.006.042-.017.058-.014.044-.031.094-.022.059-.044.125-.027.071-.116.31-.068.18-.144.369-.076.191-.152.383-.074.18-.143.35-.063.147-.06.141-.026.061-.05.115-.022.046-.038.083-.015.028-.025.045-.006.005-.103.064-.117.054-.077.032-.166.066-.097.035-.2.071-.109.037-.45.147-.218.063-.215.062-.1.025-.19.047-.082.016-.628.111-.306.026-.61.031-.297-.014-.59-.047-.289-.053-.573-.127-.28-.094-.557-.206-.273-.134-.54-.287-.265-.172-.528-.368-.257-.214-.513-.447-.251-.255-.157-.162-.12-.127-.065-.073-.28-.307-.153-.172-.312-.355-.155-.18-.307-.362-.14-.168-.728-.867-.461-.537-.22-.249-.429-.483-.203-.222-.398-.43-.188-.196-.37-.378-.173-.17-.34-.327-.159-.144-.312-.277-.146-.12-.285-.229-.132-.095-.421-.282-.302-.18-.158-.085-.322-.168-.167-.078-.337-.153-.172-.07-.696-.261-.347-.1-.346-.093-.17-.037-.337-.069-.163-.024-.67-.1.877-1.34.876-1.342m-9.849 7.9.042.092.026.066.056.146.03.088.064.183.033.101.238.734 1.582.005-.251.222-.128.109-.102.087-.056.047-.234.193-.1.081-.37.296.147.56.119.454.035.131.014.051.024.094.007.027.01.092-.012.012h-.012l-.026-.003-.02-.008-.046-.021-.03-.018-.067-.04-.042-.027-.092-.06-.055-.037-.12-.08-.07-.05-.635-.437-.618.424-.167.114-.076.05-.145.096-.06.039-.108.07-.036.021-.058.033h-.004l.001-.05.017-.078.015-.058.034-.124.021-.076.047-.158.028-.087.077-.256.046-.162.018-.07.033-.131.01-.048.016-.085v-.02l-.047-.091-.072-.09-.054-.055-.118-.117-.07-.063-.15-.13-.082-.065-.593-.472.786-.023.786-.024.237-.73.096-.285.06-.165.027-.067.048-.12.019-.036.031-.058h.008m37.359-.79.12.013.558.082.394.082.194.052.379.107.17.06.164.06.075.03.143.062.062.03.373.208.247.16.121.088.242.183.117.1.233.203.111.108.22.22.104.116.203.234.095.121.183.245.084.124.161.252.07.127.068.124.028.05.051.097.02.039.033.07.01.025.017.044.003.013v.02h-.007l-.016-.005-.015-.012-.033-.028-.024-.022-.05-.052-.03-.033-.112-.099-.1-.07-.062-.037-.13-.073-.073-.038-.153-.076-.083-.038-.35-.148-.187-.067-.381-.127-.187-.048-.388-.084-.281-.043-.165-.017-.17-.016-.092-.007-.191-.013-.106-.006-.218-.011-.121-.005-.25-.01-.138-.003-.726-.01-.447.006-.209.011-.409.025-.194.022-.382.047-.183.032-.364.07-.178.044-.357.095-.179.058-.359.121-.184.071-.372.15-.194.087-.191.081-.113.047-.046.017-.084.03-.027.009-.044.01-.002-.003v-.042l.012-.055.01-.04.026-.088.018-.053.037-.114.022-.065.099-.28.06-.161.123-.331.067-.171.133-.342.065-.161.129-.312.056-.132.054-.126.025-.055.047-.102.02-.041.038-.074.014-.024.026-.04.008-.007.235-.121.215-.08.13-.037.272-.073.151-.032.312-.064.164-.028.673-.095.322-.022.316-.017h.145M15.845 3.958l.046.008.205.045.126.038.267.086.15.055.31.119.163.067.67.296.323.164.316.166.144.082.278.165.118.079.592.421.427.326.224.182.454.374.233.202.472.413.237.217.476.44.236.226.468.455.227.23.45.46.212.228.417.454.193.22.496.566.296.33.133.147.255.277.116.121.223.23.102.102.198.192.092.084.18.16.086.071.334.26.169.11.334.198.225.115.113.048.23.092.117.036.236.066.12.025.243.042.125.012.252.018.13-.001.263-.008.134-.013.275-.032.142-.026.288-.059.15-.038.302-.085.157-.051.319-.111.166-.065.337-.137.175-.078.356-.163.186-.092.377-.19.197-.105.399-.218.208-.119.423-.245.22-.132.266-.16-.252.677-.06.16-.046.126-.026.07-.111.301-.062.168-.262.709-.119.325-.434 1.182-.944.47-.911.4-.296.11-.143.045-.28.085-.132.032-.298.071-.134.026-.261.046-.128.015-.256.025-.137.006-.28.007-.16-.002-.337-.006-.2-.007-.09-.005-.334-.028-.148-.025-.29-.057-.15-.045-.154-.048-.082-.027-.17-.06-.093-.035-.454-.187-.284-.137-.137-.08-.273-.165-.136-.097-.272-.204-.14-.119-.284-.252-.15-.147-.307-.31-.166-.18-.17-.185-.088-.1-.18-.203-.094-.109-.192-.223-.1-.12-.207-.245-.108-.13-.67-.792-.44-.505-.217-.238-.429-.47-.208-.22-.412-.43-.198-.198-.39-.385-.186-.173-.363-.335-.17-.147-.332-.28-.153-.118-.295-.22-.133-.087-.769-.465-.531-.283-.276-.13-.56-.251-.294-.115-.597-.224-.314-.1-.393-.13-.232-.076-.094-.031-.17-.058-.053-.019-.048-.017-.015-.006-.023-.009v-.001l.007-.038.023-.048.02-.035.045-.076.03-.046.064-.099.037-.057.165-.244.097-.138.203-.287.107-.148.215-.294.103-.139.202-.266.087-.11.084-.106.037-.046.07-.085.029-.032.054-.059.019-.019.033-.028.007-.002.092-.003M5.765 11.524l.045.074.028.06.058.131.032.083.067.176.034.098.243.721 1.604.081-.622.48-.242.194-.141.12-.057.052-.102.097-.031.035-.05.06.002.013.016.087.025.1.019.067.04.143.025.083.052.17.028.088.076.254.042.151.015.062.026.114.006.036.008.06-.005.005-.06-.02-.08-.043-.056-.035-.122-.077-.071-.048-.15-.102-.079-.057-.23-.162-.14-.095-.058-.038-.107-.069-.036-.02-.06-.033h-.009l-.032.011-.037.021-.089.052-.06.037-.13.082-.075.05-.156.102-.084.057-.235.155-.138.085-.054.03-.1.055-.03.012-.048.015v-.01l.016-.08.025-.103.019-.068.04-.149.025-.085.05-.179.029-.094.055-.189.03-.108.012-.047.039-.166.006-.058.008-.1-.008-.033-.022-.053-.02-.017-.083-.063-.09-.07-.057-.044-.12-.094-.069-.053-.14-.109-.071-.056-.524-.408.79-.023.793-.023.222-.67.092-.265.059-.16.026-.068.048-.123.02-.042.033-.07.009-.01m77.775 1.577 3.786-.001 1.525-.007.481-.004.227-.003.444-.006.203-.004.393-.007.175-.005.33-.009.139-.004.256-.01.097-.005.091-.005.036-.003.067-.005.025-.003.87-.138.529-.125.238-.08.46-.172.204-.104.395-.22.175-.13.332-.273.144-.155.274-.325.116-.184.218-.381.088-.212.165-.44.063-.241.063-.314.033-.244.013-.134.02-.277.006-.145.01-.293v-.149l-.003-.296-.007-.145-.015-.285-.011-.133-.028-.26-.017-.115-.04-.218-.024-.09-.189-.585-.15-.355-.09-.162-.186-.313-.108-.14-.226-.274-.128-.123-.266-.236-.15-.105-.311-.203-.174-.088-.358-.172-.198-.075-.41-.141-.224-.062-.457-.1-.183-.024-.116-.01-.122-.008-.068-.004-.143-.008-.082-.003-.17-.006-.097-.004-.2-.005-.114-.003-.237-.004-.133-.002-.276-.004-.154-.002-.32-.004-.178-.002-.369-.003-.203-.002-.42-.003-.232-.002-.477-.003-.262-.002-4.365-.03M8.776 7.466l.268.795.758.002.76.003-.252.221-.126.109-.101.086-.055.046-.225.188-.096.079-.35.285.208.652.08.261.048.161.02.068.033.127.01.046.017.076v.014l-.048.005-.078-.033-.057-.031-.125-.072-.076-.048-.158-.104-.086-.061-.168-.116-.098-.066-.043-.028-.157-.096-.059-.029-.106-.044-.039-.005-.07.001-.025.016-.051.03-.042.03-.096.063-.06.041-.261.184-.143.103-.2.139-.118.076-.047.03-.084.047-.027.01-.04.014v-.01l.017-.077.026-.095.019-.065.04-.14.025-.082.052-.169.028-.09.08-.26.046-.158.02-.066.033-.124.01-.043.017-.072v-.012l-.047-.067-.072-.075-.052-.048-.115-.102-.07-.057-.146-.12-.08-.06-.582-.447 1.523-.082.261-.774.263-.775m2.882-4.467.04.09.026.067.054.145.03.087.065.184.032.1.237.731.784.024.784.023-.624.48-.624.482.197.7.076.278.045.167.018.069.032.127.01.042.016.071v.008l-.05-.011-.076-.042-.057-.035-.124-.077-.075-.05-.157-.107-.086-.06-.627-.444-.552.388-.145.1-.063.044-.118.082-.05.035-.093.063-.04.026-.07.048-.03.018-.051.033-.02.011-.035.02-.012.005-.032.009v-.01l.02-.069.029-.099.022-.07.047-.153.029-.092.06-.19.032-.104.239-.752-.624-.47-.625-.471.779-.041.777-.04.248-.714.099-.277.062-.163.027-.064.05-.117.018-.036.032-.056h.006z" data-color="1"></path>
    </g>
</svg>