<?xml version="1.0"?>
<svg xmlns="http://www.w3.org/2000/svg" width="280" height="66" viewBox="0 0 280 66" fill="none">
<path fill-rule="evenodd" clip-rule="evenodd" d="M65.0574 26.1235C63.5678 24.1559 61.0058 23.2383 58.5752 23.2383C52.8773 23.2383 48.9307 27.3828 48.9307 33.1539C48.9307 37.8231 52.5634 42.759 58.4449 42.759C62.679 42.759 64.9008 40.2624 65.4499 39.5016L63.3326 37.9013C62.2349 39.4491 60.6139 40.3935 58.4971 40.3935C54.1844 40.3935 51.5966 37.0623 51.5966 33.1539C51.5966 28.9301 54.3411 25.5994 58.4971 25.5994C60.1962 25.5994 61.921 26.3602 62.967 27.7244L65.0574 26.1235ZM67.028 42.2824H69.5372V23.7105H67.028V42.2824ZM76.7099 42.2824H79.2191V26.0716H85.1781V23.7105H70.7498V26.0716H76.7093L76.7099 42.2824ZM86.3918 42.2824H88.901V23.7105H86.3918V42.2824ZM90.6622 42.2824H104.489V39.9219H93.8508L104.332 26.0716V23.7105H90.976V26.0716H101.196L90.6622 39.9219V42.2824ZM106.251 42.2824H118.667V39.9219H108.761V33.9677H117.543V31.6066H108.761V26.0716H118.197V23.7105H106.251V42.2824ZM120.768 42.2824H123.277V27.0161H123.33L133.628 42.283H136.817V23.7111H134.308V38.978H134.255L124.062 23.7111H120.768V42.2824ZM138.605 40.1842C139.86 41.9419 142.134 42.7596 144.513 42.7596C148.068 42.7596 150.943 40.604 150.943 37.0104C150.943 30.3211 141.821 33.1276 141.821 28.4322C141.821 27.2779 142.657 25.5994 145.428 25.5994C146.865 25.5994 148.094 26.2553 148.721 27.2259L150.76 25.3633C149.374 23.658 147.44 23.2383 145.428 23.2383C140.984 23.2383 139.155 26.2553 139.155 28.4322C139.155 35.6724 148.277 33.0227 148.277 37.2984C148.277 39.3442 146.238 40.3935 144.591 40.3935C143.102 40.3935 141.559 39.7645 140.671 38.4003L138.605 40.1842Z" fill="#0F66B1"/>
<path fill-rule="evenodd" clip-rule="evenodd" d="M154.949 42.2824H161.614C167.129 42.2824 172.018 39.0561 172.018 33.0489C172.018 26.2547 167.025 23.7105 161.065 23.7105H154.949V42.2824ZM268.969 34.3607L263.904 26.6149V27.3303H258.624V42.2824H254.547V27.3309H249.267V23.7105H262.005H262.075H262.304H262.532H262.761H262.99H263.218H263.447H263.676H263.904H265.989H266.708H267.088L271.009 30.6621L275.165 23.7105H280L273.048 34.3607V42.2824H268.971V34.3607H268.969ZM159.027 27.4877H161.431C164.882 27.4877 167.783 29.193 167.783 32.8391C167.783 37.0628 164.934 38.5052 161.144 38.5052H159.027V27.4877ZM173.188 42.2824H177.266V23.7105H173.188V42.2824ZM191.376 25.1796C189.807 23.7892 187.794 23.2383 185.704 23.2383C182.071 23.2383 178.647 25.3108 178.647 29.2717C178.647 35.4625 187.324 33.6261 187.324 37.0366C187.324 38.3478 185.835 38.9774 184.501 38.9774C183.142 38.9774 181.783 38.3221 180.946 37.2203L178.045 40.4203C179.796 42.0469 181.887 42.759 184.266 42.759C188.082 42.759 191.401 40.7876 191.401 36.6425C191.401 30.1374 182.88 32.3144 182.88 28.9307C182.88 27.5408 184.474 27.0161 185.625 27.0161C186.618 27.0161 187.925 27.4096 188.578 28.2486L191.376 25.1796ZM190.974 42.2824L198.977 23.7105H202.349L210.399 42.2824H205.799L204.205 38.3478H197.017L195.475 42.2824H190.974ZM202.818 34.8854L200.544 29.1143L198.297 34.8854H202.818ZM210.707 42.2824H218.288C221.581 42.2824 225.24 40.997 225.24 37.1148C225.24 34.7012 223.619 32.8915 221.188 32.5767V32.5243C223.097 31.9209 224.377 30.5047 224.377 28.4322C224.377 24.3926 220.849 23.7105 217.608 23.7105H210.707V42.2824ZM214.785 27.1729H217.556C218.836 27.1729 220.3 27.5664 220.3 29.1143C220.3 30.6091 218.993 31.1338 217.739 31.1338H214.785V27.1729ZM214.785 34.5968H217.869C219.202 34.5968 221.162 34.8854 221.162 36.6425C221.162 38.2691 219.725 38.82 218.444 38.82H214.785V34.5968ZM226.045 42.2824H230.123V23.7105H226.045V42.2824ZM232.444 42.2824H244.075V38.5052H236.522V23.7105H232.444V42.2824ZM244.724 42.2824H248.802V23.7105H244.724V42.2824Z" fill="#707071"/>
<path fill-rule="evenodd" clip-rule="evenodd" d="M36.4326 40.2807C36.5431 40.689 36.6354 41.0978 36.7118 41.5061C33.958 33.7745 25.5964 29.3032 17.4976 31.4615C9.39928 33.6188 4.40663 41.6488 5.90943 49.7132C5.76981 49.3208 5.64449 48.9212 5.53455 48.5135C3.25452 40.0528 8.33512 31.3025 16.8446 29.0354C25.3535 26.7683 34.1531 31.8201 36.4326 40.2807ZM37.4555 44.0755C37.3456 43.6672 37.2203 43.2671 37.0807 42.8763C38.5835 50.9408 33.5908 58.9702 25.492 61.1285C17.3937 63.2863 9.03155 58.8139 6.27826 51.0829C6.35466 51.4911 6.44701 51.9 6.55639 52.3082C8.83642 60.7689 17.6366 65.8213 26.1455 63.5536C34.655 61.2865 39.7356 52.5362 37.4555 44.0755Z" fill="#0F66B1"/>
<path fill-rule="evenodd" clip-rule="evenodd" d="M24.1745 65.3497C24.667 65.218 25.1501 65.0682 25.6234 64.9021C15.8854 66.6959 6.18926 60.7357 3.58327 51.0671C0.977834 41.3991 6.37834 31.4163 15.7139 28.1293C15.2203 28.2206 14.7267 28.3304 14.2337 28.4616C4.01751 31.1834 -2.08273 41.6893 0.654628 51.8476C3.39254 62.0053 13.9577 68.071 24.1745 65.3497ZM16.6539 34.4048C16.9826 34.3174 17.3118 34.2436 17.6405 34.1835C11.4172 36.3752 7.81683 43.03 9.55379 49.4756C11.2907 55.9211 17.7549 59.8945 24.2465 58.6987C23.931 58.8096 23.6094 58.9096 23.2812 58.9971C16.4697 60.8117 9.42626 56.7688 7.60136 49.9959C5.77645 43.223 9.84291 36.2205 16.6539 34.4048ZM19.7089 33.5916C26.5199 31.777 33.5639 35.8199 35.3883 42.5928C37.2126 49.3657 33.1467 56.3693 26.3352 58.1833C26.0071 58.2713 25.6778 58.3445 25.3491 58.4052C31.573 56.2135 35.1728 49.5586 33.4353 43.1131C31.6989 36.6676 25.2348 32.6941 18.7426 33.8894C19.0581 33.7785 19.3797 33.6785 19.7089 33.5916ZM28.756 64.1282C28.2635 64.2593 27.7704 64.3697 27.2763 64.4605C36.6118 61.1729 42.0118 51.1906 39.4064 41.5221C36.8009 31.853 27.1048 25.8928 17.3668 27.6871C17.8401 27.521 18.3227 27.3707 18.8157 27.2401C29.0319 24.5177 39.5982 30.5828 42.3356 40.7411C45.0729 50.901 38.9727 61.4063 28.756 64.1282Z" fill="#707071"/>
<path fill-rule="evenodd" clip-rule="evenodd" d="M21.8116 0.000301813C24.7842 0.032002 27.1824 2.468 27.1505 5.42377C27.1186 8.37899 24.6687 10.7636 21.6967 10.7319C18.7241 10.7002 16.3259 8.26422 16.3577 5.30899C16.3891 2.35377 18.8395 -0.0308518 21.8116 0.000301813Z" fill="#0F66B1"/>
<path fill-rule="evenodd" clip-rule="evenodd" d="M42.966 4.63353C35.8549 8.60425 28.7444 12.5739 21.6344 16.5446C14.6107 12.4236 7.58759 8.3031 0.564453 4.18262L12.5396 25.3846C15.2852 24.1893 18.3138 23.5247 21.4948 23.5247C24.7367 23.5247 27.8215 24.215 30.6094 25.454C34.7286 18.5144 38.8468 11.5737 42.966 4.63353Z" fill="#0F66B1"/>
</svg>
